<svg width="320.667" height="110" viewBox="0 0 320.667 110" xmlns="http://www.w3.org/2000/svg"><path fill="#555" d="M110.205 42.633H96.39v24.004h13.815c6.755.061 11.329-5.746 10.904-12.07-.576-8.456-4.317-11.876-10.904-11.934zm50.408 5.697c-6.873 0-12.013 3.803-12.013 9.422 0 5.822 5.341 9.229 11.897 9.145 6.642 0 11.945-3.322 12.089-9.145.065-5.619-5.271-9.422-11.973-9.422zm-.115-44.896L4.623 54.54l155.821 51.583 156.162-51.815L160.498 3.434zm-49.83 72.328H81.72v-2.473h1.364c1.071-.086 1.766-.422 2.289-1.068.517-.61.754-.949.754-2.025V39.015c-.124-.809-.265-1.307-.84-1.852-.691-.647-1.277-.837-2.204-1.013h-1.287v-2.453h28.811c9.17 0 20.774 8.533 20.774 20.894.001 13.264-11.543 21.225-20.713 21.171zm49.83.748c-12.388.06-22.363-6.804-22.417-18.65 0-11.489 9.709-19.154 22.586-19.102 12.645 0 22.634 7.672 22.52 19.102-.175 11.846-10.223 18.597-22.689 18.65zm90.682-32.107c-1.13-.007-1.854.438-2.777 1.104-.926.642-1.254 1.293-1.749 2.281l-9.276 22.406c-.354 1.008-.383 1.623-.066 2.318.322.604.972.775 1.77.84h1.371v2.408h-18.651v-2.408h1.247c.584-.15 1.042-.322 1.321-1.011.304-.704.191-1.023-.11-1.788l-6.782-16.137-6.701 15.898c-.294.742-.434 1.42-.115 2.135.264.549.781.791 1.419.902h.874v2.408H194.46v-2.408h.994c.747-.092 1.3-.258 1.654-.873.399-.744.256-1.443-.083-2.285l-9.379-22.898c-.402-.84-.547-1.274-1.48-2.025-.692-.549-1.187-.729-2.175-.868h-1.124v-2.553l19.113.008v2.545h-.959c-.955.081-1.83.752-2.143 1.495-.347.844-.27 1.65.055 2.461l5.774 13.788 7.872-20.304h10.412l8.113 20.195 6.012-14.414c.118-.938.118-1.312-.383-2.066-.549-.782-1.033-1.049-1.969-1.155h-1.136v-2.56h18.977v2.56h-1.425zM252.62 96.223a7.498 7.498 0 01-7.512 7.539 7.528 7.528 0 01-7.551-7.539c0-4.174 3.391-7.514 7.551-7.514a7.494 7.494 0 017.512 7.514m-13.937.025c0 3.554 2.867 6.398 6.425 6.398 3.565 0 6.385-2.845 6.385-6.398 0-3.559-2.82-6.421-6.385-6.421a6.409 6.409 0 00-6.425 6.421zm5.005 4.334h-1.398v-8.666h3.439c1.658 0 2.428 1.085 2.428 2.163 0 1.021-.785 1.796-1.888 1.999v.043c1.083.127 1.458.459 1.528 2.201.021.377.132 1.715.335 2.26h-1.387c-.341-.598-.254-1.711-.357-2.883-.098-.92-.894-.988-1.296-.988h-1.405v3.871zm0-4.986h1.807c.851 0 1.251-.635 1.251-1.407 0-.621-.315-1.312-1.251-1.312h-1.807v2.719z"/></svg>
